<?xml version="1.0" encoding="UTF-8" standalone="no"?>
<svg
   version="1"
   viewBox="0 0 48 48"
   enable-background="new 0 0 48 48"
   id="svg536"
   sodipodi:docname="nuevo_proyecto.svg"
   inkscape:version="1.1.1 (c3084ef, 2021-09-22)"
   xmlns:inkscape="http://www.inkscape.org/namespaces/inkscape"
   xmlns:sodipodi="http://sodipodi.sourceforge.net/DTD/sodipodi-0.dtd"
   xmlns="http://www.w3.org/2000/svg"
   xmlns:svg="http://www.w3.org/2000/svg">
  <defs
     id="defs540" />
  <sodipodi:namedview
     id="namedview538"
     pagecolor="#ffffff"
     bordercolor="#666666"
     borderopacity="1.0"
     inkscape:pageshadow="2"
     inkscape:pageopacity="0.0"
     inkscape:pagecheckerboard="0"
     showgrid="false"
     inkscape:zoom="17.645833"
     inkscape:cx="24"
     inkscape:cy="30.658796"
     inkscape:window-width="1322"
     inkscape:window-height="994"
     inkscape:window-x="580"
     inkscape:window-y="25"
     inkscape:window-maximized="0"
     inkscape:current-layer="svg536" />
  <path
     fill="#8CBCD6"
     d="M40,41H8c-2.2,0-4-1.8-4-4V11c0-2.2,1.8-4,4-4h32c2.2,0,4,1.8,4,4v26C44,39.2,42.2,41,40,41z"
     id="path520" />
  <circle
     fill="#B3DDF5"
     cx="35"
     cy="16"
     r="3"
     id="circle522" />
  <polygon
     fill="#9AC9E3"
     points="20,16 9,32 31,32"
     id="polygon524" />
  <polygon
     fill="#B3DDF5"
     points="31,22 23,32 39,32"
     id="polygon526" />
  <g
     fill="#fff"
     id="g534">
    <rect
       x="36.5"
       y="32"
       transform="matrix(-.707 .707 -.707 -.707 91.74 38)"
       width="3"
       height="12"
       id="rect530" />
    <rect
       x="36.5"
       y="32"
       transform="matrix(-.707 -.707 .707 -.707 38 91.74)"
       width="3"
       height="12"
       id="rect532" />
  </g>
  <circle
     fill="#43a047"
     cx="38.133411"
     cy="37.943329"
     r="10"
     id="circle333" />
  <g
     fill="#ffffff"
     id="g339"
     transform="matrix(1,0,0,-1,0.13341204,75.943329)">
    <rect
       x="32"
       y="36"
       width="12"
       height="4"
       id="rect335" />
    <rect
       x="36"
       y="32"
       width="4"
       height="12"
       id="rect337" />
  </g>
</svg>
