<?xml version="1.0" encoding="UTF-8" standalone="no"?>
<svg
   version="1"
   viewBox="0 0 48 48"
   enable-background="new 0 0 48 48"
   id="svg12680"
   sodipodi:docname="sonidos.svg"
   inkscape:version="1.1.1 (c3084ef, 2021-09-22)"
   xmlns:inkscape="http://www.inkscape.org/namespaces/inkscape"
   xmlns:sodipodi="http://sodipodi.sourceforge.net/DTD/sodipodi-0.dtd"
   xmlns="http://www.w3.org/2000/svg"
   xmlns:svg="http://www.w3.org/2000/svg">
  <defs
     id="defs12684" />
  <sodipodi:namedview
     id="namedview12682"
     pagecolor="#ffffff"
     bordercolor="#666666"
     borderopacity="1.0"
     inkscape:pageshadow="2"
     inkscape:pageopacity="0.0"
     inkscape:pagecheckerboard="0"
     showgrid="false"
     inkscape:zoom="17.645833"
     inkscape:cx="24"
     inkscape:cy="24"
     inkscape:window-width="1920"
     inkscape:window-height="1027"
     inkscape:window-x="0"
     inkscape:window-y="25"
     inkscape:window-maximized="1"
     inkscape:current-layer="svg12680" />
  <path
     fill="#81D4FA"
     d="M28,7.1v2c7.3,1,13,7.3,13,14.9s-5.7,13.9-13,14.9v2c8.4-1,15-8.2,15-16.9S36.4,8.1,28,7.1z"
     id="path12670" />
  <path
     fill="#546E7A"
     d="M14,32H7c-1.1,0-2-0.9-2-2V18c0-1.1,0.9-2,2-2h7V32z"
     id="path12672"
     style="fill:#0066ff" />
  <polygon
     fill="#78909C"
     points="26,42 14,32 14,16 26,6"
     id="polygon12674"
     style="fill:#2a7fff" />
  <path
     fill="#03A9F4"
     d="M28,17.3v2.1c1.8,0.8,3,2.5,3,4.6s-1.2,3.8-3,4.6v2.1c2.9-0.9,5-3.5,5-6.7S30.9,18.2,28,17.3z"
     id="path12676" />
  <path
     fill="#4FC3F7"
     d="M28,12.2v2c4.6,0.9,8,5,8,9.8s-3.4,8.9-8,9.8v2c5.7-1,10-5.9,10-11.8S33.7,13.1,28,12.2z"
     id="path12678" />
</svg>
